<?xml version="1.0" standalone="no"?>
<!DOCTYPE svg PUBLIC "-//W3C//DTD SVG 20010904//EN"
 "http://www.w3.org/TR/2001/REC-SVG-20010904/DTD/svg10.dtd">
<svg version="1.0" xmlns="http://www.w3.org/2000/svg"
 width="265.503654pt" height="106.966238pt" viewBox="0 0 265.503654 106.966238"
 preserveAspectRatio="xMidYMid meet">
<metadata>
Created by potrace 1.12, written by Peter Selinger 2001-2015
</metadata>
<g transform="translate(-0.175124,107.000000) scale(0.100000,-0.100000)"
fill="#000000" stroke="none">
<path d="M1020 790 l0 -280 55 0 55 0 0 280 0 280 -55 0 -55 0 0 -280z"/>
<path d="M1276 1046 c-31 -30 -33 -69 -6 -96 29 -29 74 -26 99 6 26 33 26 55
4 82 -30 35 -68 38 -97 8z"/>
<path d="M1510 790 l0 -280 55 0 c49 0 55 2 55 20 0 20 1 20 31 -2 42 -31 135
-32 176 -2 111 82 104 263 -13 319 -40 19 -121 19 -154 0 -14 -8 -28 -14 -32
-15 -5 0 -8 54 -8 120 l0 120 -55 0 -55 0 0 -280z m247 -52 c32 -30 31 -81 -2
-113 -47 -48 -120 -23 -131 45 -12 76 76 121 133 68z"/>
<path d="M2470 1011 l-65 -59 21 -22 22 -22 73 42 c41 24 76 44 77 46 5 3 -51
74 -58 74 -3 0 -34 -27 -70 -59z"/>
<path d="M228 840 c-116 -62 -131 -222 -28 -298 58 -44 168 -53 214 -19 17 12
17 15 1 48 -17 35 -19 36 -64 31 -40 -3 -49 0 -70 22 -33 35 -34 88 -3 119 18
17 33 22 73 20 49 -1 51 0 65 33 18 43 19 40 -17 53 -49 17 -129 13 -171 -9z"/>
<path d="M621 849 c-71 -28 -120 -97 -121 -168 0 -57 36 -118 88 -149 39 -22
59 -27 117 -27 83 0 133 21 172 72 27 35 41 110 29 157 -9 37 -56 87 -101 107
-43 20 -143 24 -184 8z m136 -104 c44 -31 37 -111 -13 -134 -36 -16 -58 -14
-88 10 -33 26 -37 88 -6 119 24 24 76 26 107 5z"/>
<path d="M2161 834 c-30 -25 -31 -25 -31 -5 0 19 -6 21 -60 21 l-60 0 0 -170
0 -170 60 0 60 0 0 105 c0 94 2 107 21 126 17 17 30 20 66 16 44 -5 44 -5 66
40 25 52 17 63 -50 63 -30 0 -50 -7 -72 -26z"/>
<path d="M1260 680 l0 -170 60 0 60 0 0 170 0 170 -60 0 -60 0 0 -170z"/>
<path d="M2390 680 l0 -170 55 0 55 0 0 170 0 170 -55 0 -55 0 0 -170z"/>
<path d="M91 343 c-67 -33 -107 -139 -81 -217 35 -106 141 -154 235 -106 47
24 45 24 45 5 0 -12 13 -15 55 -15 l55 0 0 170 0 170 -54 0 c-32 0 -56 -5 -58
-11 -3 -8 -14 -7 -35 5 -41 21 -118 20 -162 -1z m166 -98 c44 -31 37 -111 -13
-134 -36 -16 -58 -14 -88 10 -33 26 -37 88 -6 119 24 24 76 26 107 5z"/>
<path d="M681 334 c-30 -25 -31 -25 -31 -5 0 19 -6 21 -60 21 l-60 0 0 -170 0
-170 60 0 60 0 0 105 c0 94 2 107 21 126 17 17 30 20 66 16 44 -5 44 -5 66 40
25 52 17 63 -50 63 -30 0 -50 -7 -72 -26z"/>
<path d="M969 332 c-98 -63 -117 -184 -41 -266 55 -58 133 -78 213 -54 44 13
45 15 23 61 -16 33 -18 34 -61 29 -36 -4 -48 -1 -68 18 -67 62 8 179 90 142
21 -10 24 -7 40 29 24 53 13 63 -78 67 -66 3 -76 1 -118 -26z"/>
<path d="M1354 350 c-11 -4 -34 -24 -52 -44 -73 -84 -62 -207 25 -273 49 -37
135 -40 182 -5 30 22 31 22 31 2 0 -18 6 -20 60 -20 l60 0 0 170 0 170 -59 0
c-35 0 -61 -5 -63 -11 -3 -8 -14 -7 -35 5 -34 17 -114 20 -149 6z m165 -116
c28 -36 27 -79 -4 -109 -73 -73 -184 37 -113 112 31 33 90 32 117 -3z"/>
<path d="M1928 339 c-24 -17 -28 -18 -28 -5 0 13 -12 16 -60 16 l-60 0 0 -170
0 -170 60 0 60 0 0 110 c0 99 2 111 22 130 27 25 70 26 91 2 14 -15 17 -40 17
-130 l0 -112 60 0 60 0 0 128 c0 142 -7 164 -59 199 -45 30 -124 31 -163 2z"/>
<path d="M2360 344 c-42 -18 -77 -49 -96 -86 -18 -35 -18 -121 1 -157 58 -112
234 -136 336 -44 90 82 68 228 -43 282 -53 25 -146 28 -198 5z m147 -106 c32
-30 31 -81 -2 -113 -47 -48 -120 -23 -131 45 -12 76 76 121 133 68z"/>
</g>
</svg>
