<?xml version="1.0" standalone="no"?>
<!DOCTYPE svg PUBLIC "-//W3C//DTD SVG 20010904//EN"
 "http://www.w3.org/TR/2001/REC-SVG-20010904/DTD/svg10.dtd">
<svg version="1.0" xmlns="http://www.w3.org/2000/svg"
 width="260.000000pt" height="260.000000pt" viewBox="0 0 260.000000 260.000000"
 preserveAspectRatio="xMidYMid meet">
<metadata>
Created by potrace 1.11, written by Peter Selinger 2001-2013
</metadata>
<g transform="translate(0.000000,260.000000) scale(0.100000,-0.100000)"
fill="#000000" stroke="none">
<path d="M680 1915 l-615 -615 618 -618 617 -617 617 617 618 618 -615 615
c-338 338 -617 615 -620 615 -3 0 -282 -277 -620 -615z m1105 -135 l480 -480
-483 -482 -482 -483 -480 480 c-264 264 -480 484 -480 490 -1 9 949 954 960
955 3 0 221 -216 485 -480z"/>
<path d="M867 1732 l-427 -427 430 -430 430 -430 427 428 428 427 -430 430
-430 430 -428 -428z m762 -106 l324 -324 -326 -329 -326 -328 -327 327 -327
326 323 326 c178 179 326 326 329 326 3 0 152 -146 330 -324z"/>
<path d="M1080 1515 l-215 -215 218 -218 217 -217 217 217 218 218 -215 215
c-118 118 -217 215 -220 215 -3 0 -102 -97 -220 -215z"/>
</g>
</svg>
